<svg width="98" height="161" viewBox="0 0 98 161" fill="none" xmlns="http://www.w3.org/2000/svg">
<g filter="url(#filter0_d_69_164)">
<path d="M93 42.5495C93 66.0489 73.3005 150.857 48.9999 150.857C24.6994 150.857 5 66.0489 5 42.5495C5 19.05 24.6995 0 49 0C73.3005 0 93 19.05 93 42.5495Z" fill="#FFCB74"/>
</g>
<path d="M74.1429 50.2859C74.1429 64.1719 62.886 75.4288 49 75.4288C35.114 75.4288 23.8571 64.1719 23.8571 50.2859C23.8571 36.3999 35.114 25.1431 49 25.1431C62.886 25.1431 74.1429 36.3999 74.1429 50.2859Z" fill="url(#paint0_linear_69_164)"/>
<defs>
<filter id="filter0_d_69_164" x="0.0769229" y="0" width="97.8462" height="160.703" filterUnits="userSpaceOnUse" color-interpolation-filters="sRGB">
<feFlood flood-opacity="0" result="BackgroundImageFix"/>
<feColorMatrix in="SourceAlpha" type="matrix" values="0 0 0 0 0 0 0 0 0 0 0 0 0 0 0 0 0 0 127 0" result="hardAlpha"/>
<feOffset dy="4.92308"/>
<feGaussianBlur stdDeviation="2.46154"/>
<feComposite in2="hardAlpha" operator="out"/>
<feColorMatrix type="matrix" values="0 0 0 0 0 0 0 0 0 0 0 0 0 0 0 0 0 0 0.25 0"/>
<feBlend mode="normal" in2="BackgroundImageFix" result="effect1_dropShadow_69_164"/>
<feBlend mode="normal" in="SourceGraphic" in2="effect1_dropShadow_69_164" result="shape"/>
</filter>
<linearGradient id="paint0_linear_69_164" x1="49" y1="25.1431" x2="49" y2="75.4288" gradientUnits="userSpaceOnUse">
<stop stop-color="#2F2F2F"/>
<stop offset="1" stop-color="#FFCB74"/>
</linearGradient>
</defs>
</svg>
