<svg width="326" height="58" viewBox="0 0 326 58" fill="none" xmlns="http://www.w3.org/2000/svg">
<path d="M26.9318 29H23.4091C23.2008 27.9867 22.8362 27.0966 22.3153 26.3295C21.804 25.5625 21.179 24.9186 20.4403 24.3977C19.7112 23.8674 18.9015 23.4697 18.0114 23.2045C17.1212 22.9394 16.1932 22.8068 15.2273 22.8068C13.4659 22.8068 11.8703 23.2519 10.4403 24.142C9.01989 25.0322 7.88826 26.3438 7.04545 28.0767C6.21212 29.8097 5.79545 31.9356 5.79545 34.4545C5.79545 36.9735 6.21212 39.0994 7.04545 40.8324C7.88826 42.5653 9.01989 43.8769 10.4403 44.767C11.8703 45.6572 13.4659 46.1023 15.2273 46.1023C16.1932 46.1023 17.1212 45.9697 18.0114 45.7045C18.9015 45.4394 19.7112 45.0464 20.4403 44.5256C21.179 43.9953 21.804 43.3466 22.3153 42.5795C22.8362 41.803 23.2008 40.9129 23.4091 39.9091H26.9318C26.6667 41.3958 26.1837 42.7263 25.483 43.9006C24.7822 45.0748 23.911 46.0739 22.8693 46.8977C21.8277 47.7121 20.6581 48.3324 19.3608 48.7585C18.0729 49.1847 16.6951 49.3977 15.2273 49.3977C12.7462 49.3977 10.5398 48.7917 8.60795 47.5795C6.67614 46.3674 5.15625 44.6439 4.0483 42.4091C2.94034 40.1742 2.38636 37.5227 2.38636 34.4545C2.38636 31.3864 2.94034 28.7348 4.0483 26.5C5.15625 24.2652 6.67614 22.5417 8.60795 21.3295C10.5398 20.1174 12.7462 19.5114 15.2273 19.5114C16.6951 19.5114 18.0729 19.7244 19.3608 20.1506C20.6581 20.5767 21.8277 21.2017 22.8693 22.0256C23.911 22.84 24.7822 23.8343 25.483 25.0085C26.1837 26.1733 26.6667 27.5038 26.9318 29ZM32.1697 49V27.1818H35.4084V30.4773H35.6357C36.0334 29.3977 36.7531 28.5218 37.7947 27.8494C38.8364 27.1771 40.0107 26.8409 41.3175 26.8409C41.5637 26.8409 41.8714 26.8456 42.2408 26.8551C42.6101 26.8646 42.8894 26.8788 43.0788 26.8977V30.3068C42.9652 30.2784 42.7048 30.2358 42.2976 30.179C41.8999 30.1127 41.4785 30.0795 41.0334 30.0795C39.9728 30.0795 39.0258 30.3021 38.1925 30.7472C37.3686 31.1828 36.7152 31.7888 36.2322 32.5653C35.7588 33.3324 35.522 34.2083 35.522 35.1932V49H32.1697ZM55.5362 49.4545C53.4339 49.4545 51.6205 48.9905 50.0959 48.0625C48.5807 47.125 47.4112 45.8182 46.5874 44.142C45.773 42.4564 45.3658 40.4962 45.3658 38.2614C45.3658 36.0265 45.773 34.0568 46.5874 32.3523C47.4112 30.6383 48.5571 29.303 50.0249 28.3466C51.5021 27.3807 53.2256 26.8977 55.1953 26.8977C56.3317 26.8977 57.4538 27.0871 58.5618 27.4659C59.6697 27.8447 60.6783 28.4602 61.5874 29.3125C62.4964 30.1553 63.2209 31.2727 63.7607 32.6648C64.3004 34.0568 64.5703 35.7708 64.5703 37.8068V39.2273H47.7521V36.3295H61.1612C61.1612 35.0985 60.915 34 60.4226 33.0341C59.9396 32.0682 59.2483 31.3059 58.3487 30.7472C57.4586 30.1884 56.4074 29.9091 55.1953 29.9091C53.8601 29.9091 52.7048 30.2405 51.7294 30.9034C50.7635 31.5568 50.0201 32.4091 49.4993 33.4602C48.9785 34.5114 48.718 35.6383 48.718 36.8409V38.7727C48.718 40.4205 49.0021 41.8172 49.5703 42.9631C50.148 44.0994 50.9482 44.9659 51.9709 45.5625C52.9936 46.1496 54.1821 46.4432 55.5362 46.4432C56.4169 46.4432 57.2124 46.3201 57.9226 46.0739C58.6423 45.8182 59.2625 45.4394 59.7834 44.9375C60.3042 44.4261 60.7067 43.7917 60.9908 43.0341L64.2294 43.9432C63.8885 45.0417 63.3156 46.0076 62.5107 46.8409C61.7057 47.6648 60.7114 48.3087 59.5277 48.7727C58.344 49.2273 57.0135 49.4545 55.5362 49.4545ZM76.0902 49.5114C74.7076 49.5114 73.4529 49.2509 72.326 48.7301C71.1991 48.1998 70.3042 47.4375 69.6413 46.4432C68.9785 45.4394 68.647 44.2273 68.647 42.8068C68.647 41.5568 68.8932 40.5436 69.3857 39.767C69.8781 38.9811 70.5362 38.3655 71.3601 37.9205C72.1839 37.4754 73.093 37.1439 74.0874 36.9261C75.0911 36.6989 76.0997 36.5189 77.1129 36.3864C78.4387 36.2159 79.5135 36.0881 80.3374 36.0028C81.1707 35.9081 81.7768 35.7519 82.1555 35.5341C82.5438 35.3163 82.7379 34.9375 82.7379 34.3977V34.2841C82.7379 32.8826 82.3544 31.7936 81.5874 31.017C80.8298 30.2405 79.6792 29.8523 78.1357 29.8523C76.5353 29.8523 75.2805 30.2027 74.3714 30.9034C73.4624 31.6042 72.8232 32.3523 72.4538 33.1477L69.272 32.0114C69.8402 30.6856 70.5978 29.6534 71.5447 28.9148C72.5012 28.1667 73.5429 27.6458 74.6697 27.3523C75.8061 27.0492 76.9235 26.8977 78.022 26.8977C78.7228 26.8977 79.5277 26.983 80.4368 27.1534C81.3554 27.3144 82.2408 27.6506 83.093 28.1619C83.9548 28.6733 84.6697 29.4451 85.2379 30.4773C85.8061 31.5095 86.0902 32.892 86.0902 34.625V49H82.7379V46.0455H82.5675C82.3402 46.5189 81.9614 47.0256 81.4311 47.5653C80.9008 48.1051 80.1953 48.5644 79.3146 48.9432C78.4339 49.322 77.3591 49.5114 76.0902 49.5114ZM76.6016 46.5C77.9273 46.5 79.0447 46.2396 79.9538 45.7188C80.8724 45.1979 81.5637 44.5256 82.0277 43.7017C82.5012 42.8778 82.7379 42.0114 82.7379 41.1023V38.0341C82.5959 38.2045 82.2834 38.3608 81.8004 38.5028C81.3269 38.6354 80.7777 38.7538 80.1527 38.858C79.5372 38.9527 78.9358 39.0379 78.3487 39.1136C77.7711 39.1799 77.3023 39.2367 76.9425 39.2841C76.0713 39.3977 75.2569 39.5824 74.4993 39.8381C73.7512 40.0843 73.1451 40.4583 72.6811 40.9602C72.2266 41.4527 71.9993 42.125 71.9993 42.9773C71.9993 44.142 72.4302 45.0227 73.2919 45.6193C74.1631 46.2064 75.2663 46.5 76.6016 46.5ZM101.697 27.1818V30.0227H90.3906V27.1818H101.697ZM93.6861 21.9545H97.0384V42.75C97.0384 43.697 97.1757 44.4072 97.4503 44.8807C97.7344 45.3447 98.0942 45.6572 98.5298 45.8182C98.9749 45.9697 99.4437 46.0455 99.9361 46.0455C100.305 46.0455 100.608 46.0265 100.845 45.9886C101.082 45.9413 101.271 45.9034 101.413 45.875L102.095 48.8864C101.868 48.9716 101.551 49.0568 101.143 49.142C100.736 49.2367 100.22 49.2841 99.5952 49.2841C98.6482 49.2841 97.7202 49.0805 96.8111 48.6733C95.9115 48.2661 95.1634 47.6458 94.5668 46.8125C93.9796 45.9792 93.6861 44.928 93.6861 43.6591V21.9545ZM115.653 49.4545C113.551 49.4545 111.738 48.9905 110.213 48.0625C108.698 47.125 107.528 45.8182 106.705 44.142C105.89 42.4564 105.483 40.4962 105.483 38.2614C105.483 36.0265 105.89 34.0568 106.705 32.3523C107.528 30.6383 108.674 29.303 110.142 28.3466C111.619 27.3807 113.343 26.8977 115.312 26.8977C116.449 26.8977 117.571 27.0871 118.679 27.4659C119.787 27.8447 120.795 28.4602 121.705 29.3125C122.614 30.1553 123.338 31.2727 123.878 32.6648C124.418 34.0568 124.688 35.7708 124.688 37.8068V39.2273H107.869V36.3295H121.278C121.278 35.0985 121.032 34 120.54 33.0341C120.057 32.0682 119.366 31.3059 118.466 30.7472C117.576 30.1884 116.525 29.9091 115.312 29.9091C113.977 29.9091 112.822 30.2405 111.847 30.9034C110.881 31.5568 110.137 32.4091 109.616 33.4602C109.096 34.5114 108.835 35.6383 108.835 36.8409V38.7727C108.835 40.4205 109.119 41.8172 109.688 42.9631C110.265 44.0994 111.065 44.9659 112.088 45.5625C113.111 46.1496 114.299 46.4432 115.653 46.4432C116.534 46.4432 117.33 46.3201 118.04 46.0739C118.759 45.8182 119.38 45.4394 119.901 44.9375C120.421 44.4261 120.824 43.7917 121.108 43.0341L124.347 43.9432C124.006 45.0417 123.433 46.0076 122.628 46.8409C121.823 47.6648 120.829 48.3087 119.645 48.7727C118.461 49.2273 117.131 49.4545 115.653 49.4545ZM147.457 49.5114C146.075 49.5114 144.82 49.2509 143.693 48.7301C142.566 48.1998 141.671 47.4375 141.009 46.4432C140.346 45.4394 140.014 44.2273 140.014 42.8068C140.014 41.5568 140.26 40.5436 140.753 39.767C141.245 38.9811 141.903 38.3655 142.727 37.9205C143.551 37.4754 144.46 37.1439 145.455 36.9261C146.458 36.6989 147.467 36.5189 148.48 36.3864C149.806 36.2159 150.881 36.0881 151.705 36.0028C152.538 35.9081 153.144 35.7519 153.523 35.5341C153.911 35.3163 154.105 34.9375 154.105 34.3977V34.2841C154.105 32.8826 153.722 31.7936 152.955 31.017C152.197 30.2405 151.046 29.8523 149.503 29.8523C147.902 29.8523 146.648 30.2027 145.739 30.9034C144.83 31.6042 144.19 32.3523 143.821 33.1477L140.639 32.0114C141.207 30.6856 141.965 29.6534 142.912 28.9148C143.868 28.1667 144.91 27.6458 146.037 27.3523C147.173 27.0492 148.291 26.8977 149.389 26.8977C150.09 26.8977 150.895 26.983 151.804 27.1534C152.723 27.3144 153.608 27.6506 154.46 28.1619C155.322 28.6733 156.037 29.4451 156.605 30.4773C157.173 31.5095 157.457 32.892 157.457 34.625V49H154.105V46.0455H153.935C153.707 46.5189 153.329 47.0256 152.798 47.5653C152.268 48.1051 151.563 48.5644 150.682 48.9432C149.801 49.322 148.726 49.5114 147.457 49.5114ZM147.969 46.5C149.295 46.5 150.412 46.2396 151.321 45.7188C152.24 45.1979 152.931 44.5256 153.395 43.7017C153.868 42.8778 154.105 42.0114 154.105 41.1023V38.0341C153.963 38.2045 153.651 38.3608 153.168 38.5028C152.694 38.6354 152.145 38.7538 151.52 38.858C150.904 38.9527 150.303 39.0379 149.716 39.1136C149.138 39.1799 148.67 39.2367 148.31 39.2841C147.438 39.3977 146.624 39.5824 145.866 39.8381C145.118 40.0843 144.512 40.4583 144.048 40.9602C143.594 41.4527 143.366 42.125 143.366 42.9773C143.366 44.142 143.797 45.0227 144.659 45.6193C145.53 46.2064 146.634 46.5 147.969 46.5ZM178.178 35.875V49H174.826V27.1818H178.065V30.5909H178.349C178.86 29.483 179.637 28.5928 180.678 27.9205C181.72 27.2386 183.065 26.8977 184.712 26.8977C186.19 26.8977 187.482 27.2008 188.59 27.8068C189.698 28.4034 190.56 29.3125 191.175 30.5341C191.791 31.7462 192.099 33.2803 192.099 35.1364V49H188.746V35.3636C188.746 33.6496 188.301 32.3144 187.411 31.358C186.521 30.392 185.299 29.9091 183.746 29.9091C182.676 29.9091 181.72 30.1411 180.877 30.6051C180.044 31.0691 179.386 31.7462 178.903 32.6364C178.42 33.5265 178.178 34.6061 178.178 35.875ZM207.372 49.4545C205.27 49.4545 203.456 48.9905 201.932 48.0625C200.417 47.125 199.247 45.8182 198.423 44.142C197.609 42.4564 197.202 40.4962 197.202 38.2614C197.202 36.0265 197.609 34.0568 198.423 32.3523C199.247 30.6383 200.393 29.303 201.861 28.3466C203.338 27.3807 205.062 26.8977 207.031 26.8977C208.168 26.8977 209.29 27.0871 210.398 27.4659C211.506 27.8447 212.514 28.4602 213.423 29.3125C214.332 30.1553 215.057 31.2727 215.597 32.6648C216.136 34.0568 216.406 35.7708 216.406 37.8068V39.2273H199.588V36.3295H212.997C212.997 35.0985 212.751 34 212.259 33.0341C211.776 32.0682 211.084 31.3059 210.185 30.7472C209.295 30.1884 208.243 29.9091 207.031 29.9091C205.696 29.9091 204.541 30.2405 203.565 30.9034C202.599 31.5568 201.856 32.4091 201.335 33.4602C200.814 34.5114 200.554 35.6383 200.554 36.8409V38.7727C200.554 40.4205 200.838 41.8172 201.406 42.9631C201.984 44.0994 202.784 44.9659 203.807 45.5625C204.83 46.1496 206.018 46.4432 207.372 46.4432C208.253 46.4432 209.048 46.3201 209.759 46.0739C210.478 45.8182 211.098 45.4394 211.619 44.9375C212.14 44.4261 212.543 43.7917 212.827 43.0341L216.065 43.9432C215.724 45.0417 215.152 46.0076 214.347 46.8409C213.542 47.6648 212.547 48.3087 211.364 48.7727C210.18 49.2273 208.849 49.4545 207.372 49.4545ZM226.449 49L219.801 27.1818H223.324L228.04 43.8864H228.267L232.926 27.1818H236.506L241.108 43.8295H241.335L246.051 27.1818H249.574L242.926 49H239.631L234.858 32.2386H234.517L229.744 49H226.449ZM274.744 27.1818V30.0227H263.438V27.1818H274.744ZM266.733 21.9545H270.085V42.75C270.085 43.697 270.223 44.4072 270.497 44.8807C270.781 45.3447 271.141 45.6572 271.577 45.8182C272.022 45.9697 272.491 46.0455 272.983 46.0455C273.352 46.0455 273.655 46.0265 273.892 45.9886C274.129 45.9413 274.318 45.9034 274.46 45.875L275.142 48.8864C274.915 48.9716 274.598 49.0568 274.19 49.142C273.783 49.2367 273.267 49.2841 272.642 49.2841C271.695 49.2841 270.767 49.0805 269.858 48.6733C268.958 48.2661 268.21 47.6458 267.614 46.8125C267.027 45.9792 266.733 44.928 266.733 43.6591V21.9545ZM279.787 49V27.1818H283.026V30.4773H283.253C283.651 29.3977 284.37 28.5218 285.412 27.8494C286.454 27.1771 287.628 26.8409 288.935 26.8409C289.181 26.8409 289.489 26.8456 289.858 26.8551C290.227 26.8646 290.507 26.8788 290.696 26.8977V30.3068C290.582 30.2784 290.322 30.2358 289.915 30.179C289.517 30.1127 289.096 30.0795 288.651 30.0795C287.59 30.0795 286.643 30.3021 285.81 30.7472C284.986 31.1828 284.332 31.7888 283.849 32.5653C283.376 33.3324 283.139 34.2083 283.139 35.1932V49H279.787ZM294.67 49V27.1818H298.022V49H294.67ZM296.374 23.5455C295.721 23.5455 295.157 23.3229 294.684 22.8778C294.22 22.4328 293.988 21.8977 293.988 21.2727C293.988 20.6477 294.22 20.1127 294.684 19.6676C295.157 19.2225 295.721 19 296.374 19C297.028 19 297.586 19.2225 298.05 19.6676C298.524 20.1127 298.761 20.6477 298.761 21.2727C298.761 21.8977 298.524 22.4328 298.05 22.8778C297.586 23.3229 297.028 23.5455 296.374 23.5455ZM304.162 57.1818V27.1818H307.401V30.6477H307.798C308.045 30.2689 308.385 29.786 308.821 29.1989C309.266 28.6023 309.901 28.072 310.724 27.608C311.558 27.1345 312.685 26.8977 314.105 26.8977C315.942 26.8977 317.562 27.357 318.963 28.2756C320.365 29.1941 321.458 30.4962 322.244 32.1818C323.03 33.8674 323.423 35.8561 323.423 38.1477C323.423 40.4583 323.03 42.4612 322.244 44.1562C321.458 45.8419 320.369 47.1487 318.977 48.0767C317.585 48.9953 315.98 49.4545 314.162 49.4545C312.76 49.4545 311.638 49.2225 310.795 48.7585C309.953 48.285 309.304 47.75 308.849 47.1534C308.395 46.5473 308.045 46.0455 307.798 45.6477H307.514V57.1818H304.162ZM307.457 38.0909C307.457 39.7386 307.699 41.1922 308.182 42.4517C308.665 43.7017 309.37 44.6818 310.298 45.392C311.226 46.0928 312.363 46.4432 313.707 46.4432C315.109 46.4432 316.278 46.0739 317.216 45.3352C318.163 44.5871 318.873 43.5833 319.347 42.3239C319.83 41.0549 320.071 39.6439 320.071 38.0909C320.071 36.5568 319.834 35.1742 319.361 33.9432C318.897 32.7027 318.191 31.7225 317.244 31.0028C316.307 30.2737 315.128 29.9091 313.707 29.9091C312.344 29.9091 311.198 30.2547 310.27 30.946C309.342 31.6278 308.641 32.5843 308.168 33.8153C307.694 35.0369 307.457 36.4621 307.457 38.0909Z" fill="#2F2F2F"/>
<g filter="url(#filter0_d_64_130)">
<path d="M303 6.76923C303 10.5078 299.866 24 296 24C292.134 24 289 10.5078 289 6.76923C289 3.03069 292.134 0 296 0C299.866 0 303 3.03069 303 6.76923Z" fill="#2F2F2F"/>
</g>
<g filter="url(#filter1_d_64_130)">
<circle cx="295.862" cy="7.86156" r="3.86156" fill="#FFCB74"/>
</g>
<defs>
<filter id="filter0_d_64_130" x="284.077" y="0" width="23.8462" height="33.8462" filterUnits="userSpaceOnUse" color-interpolation-filters="sRGB">
<feFlood flood-opacity="0" result="BackgroundImageFix"/>
<feColorMatrix in="SourceAlpha" type="matrix" values="0 0 0 0 0 0 0 0 0 0 0 0 0 0 0 0 0 0 127 0" result="hardAlpha"/>
<feOffset dy="4.92308"/>
<feGaussianBlur stdDeviation="2.46154"/>
<feComposite in2="hardAlpha" operator="out"/>
<feColorMatrix type="matrix" values="0 0 0 0 0 0 0 0 0 0 0 0 0 0 0 0 0 0 0.25 0"/>
<feBlend mode="normal" in2="BackgroundImageFix" result="effect1_dropShadow_64_130"/>
<feBlend mode="normal" in="SourceGraphic" in2="effect1_dropShadow_64_130" result="shape"/>
</filter>
<filter id="filter1_d_64_130" x="285.821" y="4" width="20.0801" height="20.0801" filterUnits="userSpaceOnUse" color-interpolation-filters="sRGB">
<feFlood flood-opacity="0" result="BackgroundImageFix"/>
<feColorMatrix in="SourceAlpha" type="matrix" values="0 0 0 0 0 0 0 0 0 0 0 0 0 0 0 0 0 0 127 0" result="hardAlpha"/>
<feOffset dy="6.1785"/>
<feGaussianBlur stdDeviation="3.08925"/>
<feComposite in2="hardAlpha" operator="out"/>
<feColorMatrix type="matrix" values="0 0 0 0 0 0 0 0 0 0 0 0 0 0 0 0 0 0 0.25 0"/>
<feBlend mode="normal" in2="BackgroundImageFix" result="effect1_dropShadow_64_130"/>
<feBlend mode="normal" in="SourceGraphic" in2="effect1_dropShadow_64_130" result="shape"/>
</filter>
</defs>
</svg>
