<svg width="416" height="57" viewBox="0 0 416 57" fill="none" xmlns="http://www.w3.org/2000/svg">
<path d="M22.6136 18.9091H26.1364V38.1705C26.1364 40.1591 25.6676 41.9347 24.7301 43.4972C23.8021 45.0502 22.4905 46.2765 20.7955 47.1761C19.1004 48.0663 17.1117 48.5114 14.8295 48.5114C12.5473 48.5114 10.5587 48.0663 8.86364 47.1761C7.16856 46.2765 5.85227 45.0502 4.91477 43.4972C3.98674 41.9347 3.52273 40.1591 3.52273 38.1705V18.9091H7.04545V37.8864C7.04545 39.3068 7.35795 40.571 7.98295 41.679C8.60795 42.7775 9.49811 43.6439 10.6534 44.2784C11.8182 44.9034 13.2102 45.2159 14.8295 45.2159C16.4489 45.2159 17.8409 44.9034 19.0057 44.2784C20.1705 43.6439 21.0606 42.7775 21.6761 41.679C22.3011 40.571 22.6136 39.3068 22.6136 37.8864V18.9091ZM32.7166 56.1818V26.1818H35.9553V29.6477H36.353C36.5992 29.2689 36.9401 28.786 37.3757 28.1989C37.8208 27.6023 38.4553 27.072 39.2791 26.608C40.1125 26.1345 41.2393 25.8977 42.6598 25.8977C44.4969 25.8977 46.1162 26.357 47.5178 27.2756C48.9193 28.1941 50.013 29.4962 50.799 31.1818C51.585 32.8674 51.978 34.8561 51.978 37.1477C51.978 39.4583 51.585 41.4612 50.799 43.1562C50.013 44.8419 48.924 46.1487 47.532 47.0767C46.1399 47.9953 44.5348 48.4545 42.7166 48.4545C41.3151 48.4545 40.1929 48.2225 39.3501 47.7585C38.5073 47.285 37.8587 46.75 37.4041 46.1534C36.9496 45.5473 36.5992 45.0455 36.353 44.6477H36.0689V56.1818H32.7166ZM36.0121 37.0909C36.0121 38.7386 36.2536 40.1922 36.7365 41.4517C37.2195 42.7017 37.925 43.6818 38.853 44.392C39.781 45.0928 40.9174 45.4432 42.2621 45.4432C43.6636 45.4432 44.8331 45.0739 45.7706 44.3352C46.7176 43.5871 47.4278 42.5833 47.9013 41.3239C48.3842 40.0549 48.6257 38.6439 48.6257 37.0909C48.6257 35.5568 48.389 34.1742 47.9155 32.9432C47.4515 31.7027 46.746 30.7225 45.799 30.0028C44.8615 29.2737 43.6825 28.9091 42.2621 28.9091C40.8984 28.9091 39.7526 29.2547 38.8246 29.946C37.8965 30.6278 37.1958 31.5843 36.7223 32.8153C36.2488 34.0369 36.0121 35.4621 36.0121 37.0909ZM65.9553 48.4545C63.9098 48.4545 62.1484 47.9716 60.6712 47.0057C59.1939 46.0398 58.0575 44.7093 57.2621 43.0142C56.4666 41.3191 56.0689 39.3826 56.0689 37.2045C56.0689 34.9886 56.4761 33.0331 57.2905 31.3381C58.1143 29.6335 59.2602 28.303 60.728 27.3466C62.2053 26.3807 63.9287 25.8977 65.8984 25.8977C67.4325 25.8977 68.8151 26.1818 70.0462 26.75C71.2772 27.3182 72.2857 28.1136 73.0717 29.1364C73.8577 30.1591 74.3454 31.3523 74.5348 32.7159H71.1825C70.9268 31.7216 70.3587 30.8409 69.478 30.0739C68.6068 29.2973 67.4325 28.9091 65.9553 28.9091C64.6484 28.9091 63.5026 29.25 62.5178 29.9318C61.5424 30.6042 60.7801 31.5559 60.2308 32.7869C59.6911 34.0085 59.4212 35.4432 59.4212 37.0909C59.4212 38.7765 59.6863 40.2443 60.2166 41.4943C60.7564 42.7443 61.514 43.715 62.4893 44.4062C63.4742 45.0975 64.6295 45.4432 65.9553 45.4432C66.8265 45.4432 67.6172 45.2917 68.3274 44.9886C69.0376 44.6856 69.639 44.25 70.1314 43.6818C70.6238 43.1136 70.9742 42.4318 71.1825 41.6364H74.5348C74.3454 42.9242 73.8767 44.0843 73.1286 45.1165C72.3899 46.1392 71.4098 46.9536 70.1882 47.5597C68.9761 48.1562 67.5651 48.4545 65.9553 48.4545ZM88.299 48.4545C86.3293 48.4545 84.6011 47.9858 83.1143 47.0483C81.6371 46.1108 80.4818 44.7992 79.6484 43.1136C78.8246 41.428 78.4126 39.4583 78.4126 37.2045C78.4126 34.9318 78.8246 32.9479 79.6484 31.2528C80.4818 29.5578 81.6371 28.2415 83.1143 27.304C84.6011 26.3665 86.3293 25.8977 88.299 25.8977C90.2687 25.8977 91.9922 26.3665 93.4695 27.304C94.9562 28.2415 96.1115 29.5578 96.9354 31.2528C97.7687 32.9479 98.1854 34.9318 98.1854 37.2045C98.1854 39.4583 97.7687 41.428 96.9354 43.1136C96.1115 44.7992 94.9562 46.1108 93.4695 47.0483C91.9922 47.9858 90.2687 48.4545 88.299 48.4545ZM88.299 45.4432C89.7952 45.4432 91.0263 45.0597 91.9922 44.2926C92.9581 43.5256 93.6731 42.517 94.1371 41.267C94.6011 40.017 94.8331 38.6629 94.8331 37.2045C94.8331 35.7462 94.6011 34.3873 94.1371 33.1278C93.6731 31.8684 92.9581 30.8504 91.9922 30.0739C91.0263 29.2973 89.7952 28.9091 88.299 28.9091C86.8028 28.9091 85.5717 29.2973 84.6058 30.0739C83.6399 30.8504 82.925 31.8684 82.4609 33.1278C81.9969 34.3873 81.7649 35.7462 81.7649 37.2045C81.7649 38.6629 81.9969 40.017 82.4609 41.267C82.925 42.517 83.6399 43.5256 84.6058 44.2926C85.5717 45.0597 86.8028 45.4432 88.299 45.4432ZM103.303 48V26.1818H106.541V29.5909H106.825C107.28 28.4261 108.014 27.5218 109.027 26.8778C110.04 26.2244 111.257 25.8977 112.678 25.8977C114.117 25.8977 115.315 26.2244 116.271 26.8778C117.237 27.5218 117.99 28.4261 118.53 29.5909H118.757C119.316 28.464 120.154 27.5691 121.271 26.9062C122.389 26.2339 123.729 25.8977 125.291 25.8977C127.242 25.8977 128.838 26.5085 130.078 27.7301C131.319 28.9422 131.939 30.8314 131.939 33.3977V48H128.587V33.3977C128.587 31.7879 128.146 30.6373 127.266 29.946C126.385 29.2547 125.348 28.9091 124.155 28.9091C122.621 28.9091 121.432 29.3731 120.589 30.3011C119.747 31.2197 119.325 32.3845 119.325 33.7955V48H115.916V33.0568C115.916 31.8163 115.514 30.8172 114.709 30.0597C113.904 29.2926 112.867 28.9091 111.598 28.9091C110.727 28.9091 109.912 29.1411 109.155 29.6051C108.407 30.0691 107.801 30.7131 107.337 31.5369C106.882 32.3513 106.655 33.2936 106.655 34.3636V48H103.303ZM138.068 48V26.1818H141.42V48H138.068ZM139.773 22.5455C139.119 22.5455 138.556 22.3229 138.082 21.8778C137.618 21.4328 137.386 20.8977 137.386 20.2727C137.386 19.6477 137.618 19.1127 138.082 18.6676C138.556 18.2225 139.119 18 139.773 18C140.426 18 140.985 18.2225 141.449 18.6676C141.922 19.1127 142.159 19.6477 142.159 20.2727C142.159 20.8977 141.922 21.4328 141.449 21.8778C140.985 22.3229 140.426 22.5455 139.773 22.5455ZM150.913 34.875V48H147.56V26.1818H150.799V29.5909H151.083C151.594 28.483 152.371 27.5928 153.413 26.9205C154.454 26.2386 155.799 25.8977 157.447 25.8977C158.924 25.8977 160.217 26.2008 161.325 26.8068C162.433 27.4034 163.294 28.3125 163.91 29.5341C164.525 30.7462 164.833 32.2803 164.833 34.1364V48H161.481V34.3636C161.481 32.6496 161.036 31.3144 160.146 30.358C159.255 29.392 158.034 28.9091 156.481 28.9091C155.411 28.9091 154.454 29.1411 153.612 29.6051C152.778 30.0691 152.12 30.7462 151.637 31.6364C151.154 32.5265 150.913 33.6061 150.913 34.875ZM179.766 56.6364C178.146 56.6364 176.754 56.428 175.589 56.0114C174.425 55.6042 173.454 55.0644 172.678 54.392C171.911 53.7292 171.3 53.0189 170.845 52.2614L173.516 50.3864C173.819 50.7841 174.202 51.2386 174.666 51.75C175.13 52.2708 175.765 52.7206 176.57 53.0994C177.384 53.4877 178.449 53.6818 179.766 53.6818C181.527 53.6818 182.981 53.2557 184.126 52.4034C185.272 51.5511 185.845 50.2159 185.845 48.3977V43.9659H185.561C185.315 44.3636 184.964 44.8561 184.51 45.4432C184.065 46.0208 183.421 46.5369 182.578 46.9915C181.745 47.4366 180.618 47.6591 179.197 47.6591C177.436 47.6591 175.855 47.2424 174.453 46.4091C173.061 45.5758 171.958 44.3636 171.143 42.7727C170.339 41.1818 169.936 39.25 169.936 36.9773C169.936 34.7424 170.329 32.7964 171.115 31.1392C171.901 29.4725 172.995 28.1847 174.396 27.2756C175.798 26.357 177.417 25.8977 179.254 25.8977C180.675 25.8977 181.802 26.1345 182.635 26.608C183.478 27.072 184.122 27.6023 184.567 28.1989C185.021 28.786 185.372 29.2689 185.618 29.6477H185.959V26.1818H189.197V48.625C189.197 50.5 188.771 52.0246 187.919 53.1989C187.076 54.3826 185.94 55.2491 184.51 55.7983C183.089 56.357 181.508 56.6364 179.766 56.6364ZM179.652 44.6477C180.997 44.6477 182.133 44.34 183.061 43.7244C183.989 43.1089 184.695 42.2235 185.178 41.0682C185.661 39.9129 185.902 38.5303 185.902 36.9205C185.902 35.3485 185.665 33.9612 185.192 32.7585C184.718 31.5559 184.018 30.6136 183.089 29.9318C182.161 29.25 181.016 28.9091 179.652 28.9091C178.232 28.9091 177.048 29.2689 176.101 29.9886C175.163 30.7083 174.458 31.6742 173.984 32.8864C173.52 34.0985 173.288 35.4432 173.288 36.9205C173.288 38.4356 173.525 39.7756 173.999 40.9403C174.482 42.0956 175.192 43.0047 176.129 43.6676C177.076 44.321 178.25 44.6477 179.652 44.6477ZM213.004 48.5114C211.622 48.5114 210.367 48.2509 209.24 47.7301C208.113 47.1998 207.218 46.4375 206.555 45.4432C205.893 44.4394 205.561 43.2273 205.561 41.8068C205.561 40.5568 205.807 39.5436 206.3 38.767C206.792 37.9811 207.45 37.3655 208.274 36.9205C209.098 36.4754 210.007 36.1439 211.001 35.9261C212.005 35.6989 213.014 35.5189 214.027 35.3864C215.353 35.2159 216.428 35.0881 217.251 35.0028C218.085 34.9081 218.691 34.7519 219.07 34.5341C219.458 34.3163 219.652 33.9375 219.652 33.3977V33.2841C219.652 31.8826 219.268 30.7936 218.501 30.017C217.744 29.2405 216.593 28.8523 215.05 28.8523C213.449 28.8523 212.195 29.2027 211.286 29.9034C210.376 30.6042 209.737 31.3523 209.368 32.1477L206.186 31.0114C206.754 29.6856 207.512 28.6534 208.459 27.9148C209.415 27.1667 210.457 26.6458 211.584 26.3523C212.72 26.0492 213.838 25.8977 214.936 25.8977C215.637 25.8977 216.442 25.983 217.351 26.1534C218.269 26.3144 219.155 26.6506 220.007 27.1619C220.869 27.6733 221.584 28.4451 222.152 29.4773C222.72 30.5095 223.004 31.892 223.004 33.625V48H219.652V45.0455H219.482C219.254 45.5189 218.875 46.0256 218.345 46.5653C217.815 47.1051 217.109 47.5644 216.229 47.9432C215.348 48.322 214.273 48.5114 213.004 48.5114ZM213.516 45.5C214.841 45.5 215.959 45.2396 216.868 44.7188C217.786 44.1979 218.478 43.5256 218.942 42.7017C219.415 41.8778 219.652 41.0114 219.652 40.1023V37.0341C219.51 37.2045 219.197 37.3608 218.714 37.5028C218.241 37.6354 217.692 37.7538 217.067 37.858C216.451 37.9527 215.85 38.0379 215.263 38.1136C214.685 38.1799 214.216 38.2367 213.857 38.2841C212.985 38.3977 212.171 38.5824 211.413 38.8381C210.665 39.0843 210.059 39.4583 209.595 39.9602C209.141 40.4527 208.913 41.125 208.913 41.9773C208.913 43.142 209.344 44.0227 210.206 44.6193C211.077 45.2064 212.18 45.5 213.516 45.5ZM237.362 48.4545C235.543 48.4545 233.938 47.9953 232.546 47.0767C231.154 46.1487 230.065 44.8419 229.279 43.1562C228.493 41.4612 228.1 39.4583 228.1 37.1477C228.1 34.8561 228.493 32.8674 229.279 31.1818C230.065 29.4962 231.159 28.1941 232.56 27.2756C233.962 26.357 235.581 25.8977 237.418 25.8977C238.839 25.8977 239.961 26.1345 240.785 26.608C241.618 27.072 242.253 27.6023 242.688 28.1989C243.133 28.786 243.479 29.2689 243.725 29.6477H244.009V18.9091H247.362V48H244.123V44.6477H243.725C243.479 45.0455 243.129 45.5473 242.674 46.1534C242.219 46.75 241.571 47.285 240.728 47.7585C239.885 48.2225 238.763 48.4545 237.362 48.4545ZM237.816 45.4432C239.161 45.4432 240.297 45.0928 241.225 44.392C242.153 43.6818 242.859 42.7017 243.342 41.4517C243.825 40.1922 244.066 38.7386 244.066 37.0909C244.066 35.4621 243.829 34.0369 243.356 32.8153C242.882 31.5843 242.182 30.6278 241.254 29.946C240.326 29.2547 239.18 28.9091 237.816 28.9091C236.396 28.9091 235.212 29.2737 234.265 30.0028C233.327 30.7225 232.622 31.7027 232.148 32.9432C231.684 34.1742 231.452 35.5568 231.452 37.0909C231.452 38.6439 231.689 40.0549 232.163 41.3239C232.646 42.5833 233.356 43.5871 234.293 44.3352C235.24 45.0739 236.415 45.4432 237.816 45.4432ZM271.808 26.1818L263.739 48H260.33L252.262 26.1818H255.898L261.921 43.5682H262.148L268.171 26.1818H271.808ZM284.599 48.4545C282.496 48.4545 280.683 47.9905 279.158 47.0625C277.643 46.125 276.474 44.8182 275.65 43.142C274.835 41.4564 274.428 39.4962 274.428 37.2614C274.428 35.0265 274.835 33.0568 275.65 31.3523C276.474 29.6383 277.62 28.303 279.087 27.3466C280.565 26.3807 282.288 25.8977 284.258 25.8977C285.394 25.8977 286.516 26.0871 287.624 26.4659C288.732 26.8447 289.741 27.4602 290.65 28.3125C291.559 29.1553 292.283 30.2727 292.823 31.6648C293.363 33.0568 293.633 34.7708 293.633 36.8068V38.2273H276.815V35.3295H290.224C290.224 34.0985 289.978 33 289.485 32.0341C289.002 31.0682 288.311 30.3059 287.411 29.7472C286.521 29.1884 285.47 28.9091 284.258 28.9091C282.923 28.9091 281.767 29.2405 280.792 29.9034C279.826 30.5568 279.083 31.4091 278.562 32.4602C278.041 33.5114 277.781 34.6383 277.781 35.8409V37.7727C277.781 39.4205 278.065 40.8172 278.633 41.9631C279.21 43.0994 280.011 43.9659 281.033 44.5625C282.056 45.1496 283.245 45.4432 284.599 45.4432C285.479 45.4432 286.275 45.3201 286.985 45.0739C287.705 44.8182 288.325 44.4394 288.846 43.9375C289.367 43.4261 289.769 42.7917 290.053 42.0341L293.292 42.9432C292.951 44.0417 292.378 45.0076 291.573 45.8409C290.768 46.6648 289.774 47.3087 288.59 47.7727C287.406 48.2273 286.076 48.4545 284.599 48.4545ZM302.085 34.875V48H298.732V26.1818H301.971V29.5909H302.255C302.766 28.483 303.543 27.5928 304.585 26.9205C305.626 26.2386 306.971 25.8977 308.619 25.8977C310.096 25.8977 311.388 26.2008 312.496 26.8068C313.604 27.4034 314.466 28.3125 315.082 29.5341C315.697 30.7462 316.005 32.2803 316.005 34.1364V48H312.653V34.3636C312.653 32.6496 312.208 31.3144 311.317 30.358C310.427 29.392 309.206 28.9091 307.653 28.9091C306.583 28.9091 305.626 29.1411 304.783 29.6051C303.95 30.0691 303.292 30.7462 302.809 31.6364C302.326 32.5265 302.085 33.6061 302.085 34.875ZM331.619 26.1818V29.0227H320.312V26.1818H331.619ZM323.608 20.9545H326.96V41.75C326.96 42.697 327.098 43.4072 327.372 43.8807C327.656 44.3447 328.016 44.6572 328.452 44.8182C328.897 44.9697 329.366 45.0455 329.858 45.0455C330.227 45.0455 330.53 45.0265 330.767 44.9886C331.004 44.9413 331.193 44.9034 331.335 44.875L332.017 47.8864C331.79 47.9716 331.473 48.0568 331.065 48.142C330.658 48.2367 330.142 48.2841 329.517 48.2841C328.57 48.2841 327.642 48.0805 326.733 47.6733C325.833 47.2661 325.085 46.6458 324.489 45.8125C323.902 44.9792 323.608 43.928 323.608 42.6591V20.9545ZM350.412 39.0795V26.1818H353.764V48H350.412V44.3068H350.185C349.673 45.4148 348.878 46.357 347.798 47.1335C346.719 47.9006 345.355 48.2841 343.707 48.2841C342.344 48.2841 341.132 47.9858 340.071 47.3892C339.01 46.7831 338.177 45.8741 337.571 44.6619C336.965 43.4403 336.662 41.9015 336.662 40.0455V26.1818H340.014V39.8182C340.014 41.4091 340.459 42.678 341.349 43.625C342.249 44.572 343.395 45.0455 344.787 45.0455C345.62 45.0455 346.468 44.8324 347.33 44.4062C348.201 43.9801 348.93 43.3267 349.517 42.446C350.114 41.5653 350.412 40.4432 350.412 39.0795ZM359.904 48V26.1818H363.143V29.4773H363.37C363.768 28.3977 364.487 27.5218 365.529 26.8494C366.571 26.1771 367.745 25.8409 369.052 25.8409C369.298 25.8409 369.606 25.8456 369.975 25.8551C370.344 25.8646 370.624 25.8788 370.813 25.8977V29.3068C370.7 29.2784 370.439 29.2358 370.032 29.179C369.634 29.1127 369.213 29.0795 368.768 29.0795C367.707 29.0795 366.76 29.3021 365.927 29.7472C365.103 30.1828 364.45 30.7888 363.967 31.5653C363.493 32.3324 363.256 33.2083 363.256 34.1932V48H359.904ZM383.271 48.4545C381.168 48.4545 379.355 47.9905 377.83 47.0625C376.315 46.125 375.146 44.8182 374.322 43.142C373.507 41.4564 373.1 39.4962 373.1 37.2614C373.1 35.0265 373.507 33.0568 374.322 31.3523C375.146 29.6383 376.291 28.303 377.759 27.3466C379.237 26.3807 380.96 25.8977 382.93 25.8977C384.066 25.8977 385.188 26.0871 386.296 26.4659C387.404 26.8447 388.413 27.4602 389.322 28.3125C390.231 29.1553 390.955 30.2727 391.495 31.6648C392.035 33.0568 392.305 34.7708 392.305 36.8068V38.2273H375.487V35.3295H388.896C388.896 34.0985 388.649 33 388.157 32.0341C387.674 31.0682 386.983 30.3059 386.083 29.7472C385.193 29.1884 384.142 28.9091 382.93 28.9091C381.594 28.9091 380.439 29.2405 379.464 29.9034C378.498 30.5568 377.754 31.4091 377.234 32.4602C376.713 33.5114 376.452 34.6383 376.452 35.8409V37.7727C376.452 39.4205 376.737 40.8172 377.305 41.9631C377.882 43.0994 378.683 43.9659 379.705 44.5625C380.728 45.1496 381.916 45.4432 383.271 45.4432C384.151 45.4432 384.947 45.3201 385.657 45.0739C386.377 44.8182 386.997 44.4394 387.518 43.9375C388.039 43.4261 388.441 42.7917 388.725 42.0341L391.964 42.9432C391.623 44.0417 391.05 45.0076 390.245 45.8409C389.44 46.6648 388.446 47.3087 387.262 47.7727C386.078 48.2273 384.748 48.4545 383.271 48.4545ZM412.859 31.0682L409.847 31.9205C409.658 31.4186 409.379 30.9309 409.009 30.4574C408.649 29.9744 408.157 29.5767 407.532 29.2642C406.907 28.9517 406.107 28.7955 405.131 28.7955C403.796 28.7955 402.683 29.1032 401.793 29.7188C400.913 30.3248 400.472 31.0966 400.472 32.0341C400.472 32.8674 400.775 33.5256 401.381 34.0085C401.987 34.4915 402.934 34.8939 404.222 35.2159L407.461 36.0114C409.412 36.4848 410.865 37.2093 411.822 38.1847C412.778 39.1506 413.256 40.3958 413.256 41.9205C413.256 43.1705 412.897 44.2879 412.177 45.2727C411.467 46.2576 410.472 47.0341 409.194 47.6023C407.915 48.1705 406.429 48.4545 404.734 48.4545C402.508 48.4545 400.666 47.9716 399.208 47.0057C397.75 46.0398 396.826 44.6288 396.438 42.7727L399.62 41.9773C399.923 43.1515 400.496 44.0322 401.339 44.6193C402.191 45.2064 403.304 45.5 404.677 45.5C406.239 45.5 407.48 45.1686 408.398 44.5057C409.326 43.8333 409.79 43.0284 409.79 42.0909C409.79 41.3333 409.525 40.6989 408.995 40.1875C408.465 39.6667 407.65 39.2784 406.552 39.0227L402.915 38.1705C400.917 37.697 399.45 36.9631 398.512 35.9688C397.584 34.965 397.12 33.7102 397.12 32.2045C397.12 30.9735 397.466 29.8845 398.157 28.9375C398.858 27.9905 399.809 27.2472 401.012 26.7074C402.224 26.1676 403.597 25.8977 405.131 25.8977C407.29 25.8977 408.986 26.3712 410.217 27.3182C411.457 28.2652 412.338 29.5152 412.859 31.0682Z" fill="#2F2F2F"/>
<g filter="url(#filter0_d_64_130)">
<path d="M147 6.76923C147 10.5078 143.866 24 140 24C136.134 24 133 10.5078 133 6.76923C133 3.03069 136.134 0 140 0C143.866 0 147 3.03069 147 6.76923Z" fill="#2F2F2F"/>
</g>
<g filter="url(#filter1_d_64_130)">
<circle cx="139.862" cy="7.86156" r="3.86156" fill="#FFCB74"/>
</g>
<defs>
<filter id="filter0_d_64_130" x="128.077" y="0" width="23.8462" height="33.8462" filterUnits="userSpaceOnUse" color-interpolation-filters="sRGB">
<feFlood flood-opacity="0" result="BackgroundImageFix"/>
<feColorMatrix in="SourceAlpha" type="matrix" values="0 0 0 0 0 0 0 0 0 0 0 0 0 0 0 0 0 0 127 0" result="hardAlpha"/>
<feOffset dy="4.92308"/>
<feGaussianBlur stdDeviation="2.46154"/>
<feComposite in2="hardAlpha" operator="out"/>
<feColorMatrix type="matrix" values="0 0 0 0 0 0 0 0 0 0 0 0 0 0 0 0 0 0 0.25 0"/>
<feBlend mode="normal" in2="BackgroundImageFix" result="effect1_dropShadow_64_130"/>
<feBlend mode="normal" in="SourceGraphic" in2="effect1_dropShadow_64_130" result="shape"/>
</filter>
<filter id="filter1_d_64_130" x="129.821" y="4" width="20.0801" height="20.0801" filterUnits="userSpaceOnUse" color-interpolation-filters="sRGB">
<feFlood flood-opacity="0" result="BackgroundImageFix"/>
<feColorMatrix in="SourceAlpha" type="matrix" values="0 0 0 0 0 0 0 0 0 0 0 0 0 0 0 0 0 0 127 0" result="hardAlpha"/>
<feOffset dy="6.1785"/>
<feGaussianBlur stdDeviation="3.08925"/>
<feComposite in2="hardAlpha" operator="out"/>
<feColorMatrix type="matrix" values="0 0 0 0 0 0 0 0 0 0 0 0 0 0 0 0 0 0 0.25 0"/>
<feBlend mode="normal" in2="BackgroundImageFix" result="effect1_dropShadow_64_130"/>
<feBlend mode="normal" in="SourceGraphic" in2="effect1_dropShadow_64_130" result="shape"/>
</filter>
</defs>
</svg>
